<svg width="31" height="31" viewBox="0 0 31 31" fill="none" xmlns="http://www.w3.org/2000/svg">
<path d="M24.5301 2.58325H11.6379C10.2029 2.58325 9.0417 3.74446 9.0417 5.1795V12.4606L2.96828 18.4565C2.7863 18.6365 2.6619 18.8665 2.61085 19.1173C2.5598 19.3681 2.58442 19.6284 2.68157 19.8652C2.77872 20.102 2.94403 20.3046 3.15652 20.4473C3.369 20.5899 3.61908 20.6663 3.87503 20.6666V27.1249C3.87503 27.4675 4.01111 27.796 4.25335 28.0383C4.49558 28.2805 4.82412 28.4166 5.1667 28.4166H25.8334C26.1759 28.4166 26.5045 28.2805 26.7467 28.0383C26.9889 27.796 27.125 27.4675 27.125 27.1249V5.17821C27.125 3.74446 25.9651 2.58325 24.5301 2.58325ZM14.1076 19.5183V25.8333H6.45836V18.6413L10.3166 14.8321L14.1076 18.711V19.5183ZM16.7917 11.6249H14.2084V9.04159H16.7917V11.6249ZM21.9584 21.9583H19.375V19.3749H21.9584V21.9583ZM21.9584 16.7916H19.375V14.2083H21.9584V16.7916ZM21.9584 11.6249H19.375V9.04159H21.9584V11.6249Z" fill="white"/>
<path d="M9.04169 19.375H11.625V21.9583H9.04169V19.375Z" fill="black"/>
</svg>
