<svg width="28" height="29" viewBox="0 0 28 29" fill="none" xmlns="http://www.w3.org/2000/svg">
<path d="M26.6 21.025V7.97505C26.6 6.77155 25.662 5.80005 24.5 5.80005H4.88601C3.72401 5.80005 2.78601 6.77155 2.78601 7.97505V21.025C2.78601 22.2285 3.72401 23.2 4.88601 23.2H24.5C25.662 23.2 26.6 22.2285 26.6 21.025ZM24.766 7.81555C25.228 8.29405 24.976 8.78705 24.724 9.03355L19.04 14.4275L24.5 20.3145C24.668 20.5175 24.78 20.8365 24.584 21.054C24.402 21.286 23.982 21.2715 23.8 21.1265L17.682 15.718L14.686 18.5455L11.704 15.718L5.58601 21.1265C5.40401 21.2715 4.98401 21.286 4.80201 21.054C4.60601 20.8365 4.71801 20.5175 4.88601 20.3145L10.346 14.4275L4.66201 9.03355C4.41001 8.78705 4.15801 8.29405 4.62001 7.81555C5.08201 7.33705 5.55801 7.56905 5.95001 7.91705L14.686 15.225L23.436 7.91705C23.828 7.56905 24.304 7.33705 24.766 7.81555Z" fill="white"/>
</svg>
