<svg width="26" height="26" viewBox="0 0 26 26" fill="none" xmlns="http://www.w3.org/2000/svg">
<path fill-rule="evenodd" clip-rule="evenodd" d="M8.08706 1.15475C9.35781 1.09625 9.76298 1.08325 13 1.08325C16.237 1.08325 16.6421 1.09734 17.9118 1.15475C19.1815 1.21217 20.0481 1.41475 20.8065 1.70834C21.6006 2.00842 22.321 2.4775 22.9168 3.08417C23.5235 3.67892 23.9915 4.39825 24.2905 5.19342C24.5851 5.95175 24.7866 6.81842 24.8451 8.08592C24.9036 9.35884 24.9166 9.764 24.9166 12.9999C24.9166 16.2369 24.9026 16.6421 24.8451 17.9128C24.7877 19.1803 24.5851 20.047 24.2905 20.8053C23.9915 21.6006 23.5227 22.3211 22.9168 22.9167C22.321 23.5234 21.6006 23.9914 20.8065 24.2904C20.0481 24.5851 19.1815 24.7866 17.914 24.8451C16.6421 24.9036 16.237 24.9166 13 24.9166C9.76298 24.9166 9.35781 24.9025 8.08706 24.8451C6.81956 24.7877 5.9529 24.5851 5.19456 24.2904C4.39931 23.9914 3.67878 23.5226 3.08315 22.9167C2.47689 22.3216 2.00774 21.6015 1.7084 20.8064C1.41481 20.0481 1.21331 19.1814 1.15481 17.9139C1.09631 16.641 1.08331 16.2358 1.08331 12.9999C1.08331 9.76292 1.0974 9.35775 1.15481 8.08808C1.21223 6.81842 1.41481 5.95175 1.7084 5.19342C2.00818 4.39834 2.47769 3.67817 3.08423 3.08309C3.67902 2.47696 4.39882 2.00782 5.19348 1.70834C5.95181 1.41475 6.81848 1.21325 8.08598 1.15475H8.08706ZM17.8154 3.29975C16.5587 3.24234 16.1817 3.23042 13 3.23042C9.81823 3.23042 9.44123 3.24234 8.18456 3.29975C7.02215 3.35284 6.39165 3.54675 5.97131 3.71034C5.41556 3.927 5.01798 4.18375 4.6009 4.60084C4.20553 4.98547 3.90126 5.45372 3.7104 5.97125C3.54681 6.39158 3.3529 7.02208 3.29981 8.1845C3.2424 9.44117 3.23048 9.81817 3.23048 12.9999C3.23048 16.1817 3.2424 16.5587 3.29981 17.8153C3.3529 18.9778 3.54681 19.6083 3.7104 20.0286C3.90106 20.5453 4.20548 21.0144 4.6009 21.399C4.98548 21.7944 5.45456 22.0988 5.97131 22.2895C6.39165 22.4531 7.02215 22.647 8.18456 22.7001C9.44123 22.7575 9.81715 22.7694 13 22.7694C16.1828 22.7694 16.5587 22.7575 17.8154 22.7001C18.9778 22.647 19.6083 22.4531 20.0286 22.2895C20.5844 22.0728 20.982 21.8161 21.3991 21.399C21.7945 21.0144 22.0989 20.5453 22.2896 20.0286C22.4531 19.6083 22.6471 18.9778 22.7001 17.8153C22.7576 16.5587 22.7695 16.1817 22.7695 12.9999C22.7695 9.81817 22.7576 9.44117 22.7001 8.1845C22.6471 7.02208 22.4531 6.39158 22.2896 5.97125C22.0729 5.4155 21.8161 5.01792 21.3991 4.60084C21.0144 4.2055 20.5462 3.90123 20.0286 3.71034C19.6083 3.54675 18.9778 3.35284 17.8154 3.29975ZM11.4779 16.6735C12.3279 17.0274 13.2745 17.0751 14.1558 16.8086C15.0372 16.5421 15.7987 15.9779 16.3102 15.2123C16.8218 14.4468 17.0517 13.5274 16.9607 12.6111C16.8697 11.6949 16.4634 10.8386 15.8112 10.1887C15.3955 9.77318 14.8928 9.45505 14.3393 9.25716C13.7859 9.05927 13.1954 8.98656 12.6105 9.04425C12.0256 9.10194 11.4607 9.28861 10.9566 9.59081C10.4525 9.89301 10.0216 10.3032 9.69506 10.7919C9.3685 11.2806 9.15435 11.8356 9.06804 12.417C8.98173 12.9984 9.02539 13.5917 9.1959 14.1542C9.3664 14.7167 9.6595 15.2344 10.0541 15.67C10.4487 16.1057 10.935 16.4484 11.4779 16.6735ZM8.66881 8.66875C9.23759 8.09997 9.91283 7.6488 10.656 7.34098C11.3991 7.03316 12.1956 6.87472 13 6.87472C13.8044 6.87472 14.6008 7.03316 15.344 7.34098C16.0871 7.6488 16.7624 8.09997 17.3311 8.66875C17.8999 9.23753 18.3511 9.91276 18.6589 10.6559C18.9667 11.399 19.1252 12.1955 19.1252 12.9999C19.1252 13.8043 18.9667 14.6008 18.6589 15.3439C18.3511 16.0871 17.8999 16.7623 17.3311 17.3311C16.1824 18.4798 14.6245 19.1251 13 19.1251C11.3755 19.1251 9.81751 18.4798 8.66881 17.3311C7.52012 16.1824 6.87478 14.6244 6.87478 12.9999C6.87478 11.3754 7.52012 9.81745 8.66881 8.66875ZM20.4836 7.78692C20.6246 7.65396 20.7374 7.49407 20.8155 7.31672C20.8935 7.13937 20.9352 6.94817 20.938 6.75443C20.9408 6.56068 20.9048 6.36834 20.8319 6.1888C20.7591 6.00925 20.6509 5.84614 20.5139 5.70913C20.3769 5.57212 20.2138 5.46399 20.0343 5.39115C19.8547 5.3183 19.6624 5.28223 19.4686 5.28505C19.2749 5.28787 19.0837 5.32954 18.9063 5.40759C18.729 5.48564 18.5691 5.59847 18.4361 5.73942C18.1776 6.01353 18.036 6.37763 18.0415 6.75443C18.047 7.13122 18.1991 7.49104 18.4656 7.7575C18.732 8.02396 19.0918 8.17608 19.4686 8.18158C19.8454 8.18707 20.2095 8.0455 20.4836 7.78692Z" fill="white"/>
</svg>
